<svg xmlns="http://www.w3.org/2000/svg" version="1.1" xmlns:xlink="http://www.w3.org/1999/xlink" width="1200" height="1200"><svg width="1200" height="1200" viewBox="0 0 1200 1200" fill="none" xmlns="http://www.w3.org/2000/svg">
<rect width="1200" height="1200" rx="158.491" fill="#21212B"></rect>
<path d="M557.321 667.589H642.679C664.436 667.589 682.075 649.89 682.075 628.057V542.404C682.075 520.571 699.715 502.872 721.472 502.872H806.83C828.586 502.872 846.226 485.173 846.226 463.34V377.687C846.226 355.854 828.586 338.155 806.83 338.155H721.472C699.715 338.155 682.075 355.854 682.075 377.687V463.34C682.075 485.173 664.436 502.872 642.679 502.872H557.321C535.564 502.872 517.924 485.173 517.924 463.34V377.687C517.924 355.854 500.285 338.155 478.528 338.155H393.17C371.413 338.155 353.773 355.854 353.773 377.687V463.34C353.773 485.173 371.413 502.872 393.17 502.872H478.528C500.285 502.872 517.924 520.571 517.924 542.404V628.057C517.924 649.89 535.564 667.589 557.321 667.589Z" fill="#E3C8BD"></path>
<path d="M516.794 735.369C516.794 713.311 534.676 695.43 556.734 695.43H643.27C665.328 695.43 683.21 713.311 683.21 735.369V821.905C683.21 843.963 665.328 861.845 643.27 861.845H556.734C534.676 861.845 516.794 843.963 516.794 821.905V735.369Z" fill="#E3C8BD"></path>
</svg><style>@media (prefers-color-scheme: light) { :root { filter: none; } }
@media (prefers-color-scheme: dark) { :root { filter: none; } }
</style></svg>