<svg width="1900" height="1580" viewBox="0 0 1900 1580" fill="none" xmlns="http://www.w3.org/2000/svg">
<path d="M640 395C640 353.579 673.579 320 715 320H865C906.421 320 940 353.579 940 395V545C940 586.421 906.421 620 865 620H715C673.579 620 640 586.421 640 545V395Z" fill="#21212B"/>
<path d="M640 1035C640 993.579 673.579 960 715 960H865C906.421 960 940 993.579 940 1035V1185C940 1226.42 906.421 1260 865 1260H715C673.579 1260 640 1226.42 640 1185V1035Z" fill="#21212B"/>
<path d="M960 715C960 673.579 993.579 640 1035 640H1185C1226.42 640 1260 673.579 1260 715V865C1260 906.421 1226.42 940 1185 940H1035C993.579 940 960 906.421 960 865V715Z" fill="#21212B"/>
<path d="M1280 1035C1280 993.579 1313.58 960 1355 960H1505C1546.42 960 1580 993.579 1580 1035V1185C1580 1226.42 1546.42 1260 1505 1260H1355C1313.58 1260 1280 1226.42 1280 1185V1035Z" fill="#21212B"/>
<path d="M1600 715C1600 673.579 1633.58 640 1675 640H1825C1866.42 640 1900 673.579 1900 715V865C1900 906.421 1866.42 940 1825 940H1675C1633.58 940 1600 906.421 1600 865V715Z" fill="#21212B"/>
<path d="M1580 75C1580 33.5786 1546.42 0 1505 0H1355C1313.58 0 1280 33.5786 1280 75V230.5C1280 279.929 1239.93 320 1190.5 320H1035C993.579 320 960 353.579 960 395V545C960 586.421 993.579 620 1035 620H1190.5C1239.93 620 1280 660.071 1280 709.5V865C1280 906.421 1313.58 940 1355 940H1505C1546.42 940 1580 906.421 1580 865V715C1580 673.579 1546.42 640 1505 640H1349.5C1300.07 640 1260 599.929 1260 550.5V389.5C1260 340.071 1300.07 300 1349.5 300H1505C1546.42 300 1580 266.421 1580 225V75Z" fill="#21212B"/>
<path d="M75 640C33.5786 640 -1.81058e-06 673.579 0 715L6.55671e-06 865C8.3673e-06 906.421 33.5787 940 75 940H230.5C279.929 940 320 980.07 320 1029.5L320 1185C320 1226.42 353.579 1260 395 1260H545C586.421 1260 620 1226.42 620 1185V1029.5C620 980.07 660.071 940 709.5 940H865C906.421 940 940 906.421 940 865V715C940 673.579 906.421 640 865 640H715C673.579 640 640 673.579 640 715V870.5C640 919.93 599.929 960 550.5 960H389.5C340.071 960 300 919.93 300 870.5V715C300 673.579 266.421 640 225 640H75Z" fill="#21212B"/>
<path d="M1035 960C993.579 960 960 993.579 960 1035V1185C960 1226.42 993.579 1260 1035 1260H1190.5C1239.93 1260 1280 1300.07 1280 1349.5V1505C1280 1546.42 1313.58 1580 1355 1580H1505C1546.42 1580 1580 1546.42 1580 1505V1349.5C1580 1300.07 1620.07 1260 1669.5 1260H1825C1866.42 1260 1900 1226.42 1900 1185V1035C1900 993.579 1866.42 960 1825 960H1675C1633.58 960 1600 993.579 1600 1035V1190.5C1600 1239.93 1559.93 1280 1510.5 1280H1349.5C1300.07 1280 1260 1239.93 1260 1190.5V1035C1260 993.579 1226.42 960 1185 960H1035Z" fill="#21212B"/>
</svg>
