<svg width="1580" height="1580" viewBox="0 0 1580 1580" fill="none" xmlns="http://www.w3.org/2000/svg">
<path d="M320 395C320 353.579 353.579 320 395 320H545C586.421 320 620 353.579 620 395V545C620 586.421 586.421 620 545 620H395C353.579 620 320 586.421 320 545V395Z" fill="#21212B"/>
<path d="M640 1035C640 993.579 673.579 960 715 960H865C906.421 960 940 993.579 940 1035V1185C940 1226.42 906.421 1260 865 1260H715C673.579 1260 640 1226.42 640 1185V1035Z" fill="#21212B"/>
<path d="M960 1035C960 993.579 993.579 960 1035 960H1185C1226.42 960 1260 993.579 1260 1035V1185C1260 1226.42 1226.42 1260 1185 1260H1035C993.579 1260 960 1226.42 960 1185V1035Z" fill="#21212B"/>
<path d="M620 75C620 33.5786 586.421 0 545 0H395C353.579 0 320 33.5786 320 75V230.5C320 279.929 279.93 320 230.5 320H75C33.5787 320 2.38227e-05 353.579 2.38227e-05 395V545C2.38227e-05 586.421 33.5787 620 75 620H230.5C279.93 620 320 660.071 320 709.5V865C320 906.421 353.579 940 395 940H545C586.421 940 620 906.421 620 865V715C620 673.579 586.421 640 545 640H389.5C340.07 640 300 599.929 300 550.5V389.5C300 340.071 340.07 300 389.5 300H545C586.421 300 620 266.421 620 225V75Z" fill="#21212B"/>
<path d="M75 640C33.5786 640 -1.81058e-06 673.579 0 715L6.55671e-06 865C8.3673e-06 906.421 33.5787 940 75 940H230.5C279.929 940 320 980.07 320 1029.5L320 1185C320 1226.42 353.579 1260 395 1260H545C586.421 1260 620 1226.42 620 1185V1029.5C620 980.07 660.071 940 709.5 940H865C906.421 940 940 906.421 940 865V715C940 673.579 906.421 640 865 640H715C673.579 640 640 673.579 640 715V870.5C640 919.93 599.929 960 550.5 960H389.5C340.071 960 300 919.93 300 870.5V715C300 673.579 266.421 640 225 640H75Z" fill="#21212B"/>
<path d="M960 1505C960 1546.42 993.579 1580 1035 1580H1185C1226.42 1580 1260 1546.42 1260 1505V1349.5C1260 1300.07 1300.07 1260 1349.5 1260H1505C1546.42 1260 1580 1226.42 1580 1185V1035C1580 993.579 1546.42 960 1505 960H1349.5C1300.07 960 1260 919.929 1260 870.5V715C1260 673.579 1226.42 640 1185 640H1035C993.579 640 960 673.579 960 715V865C960 906.421 993.579 940 1035 940H1190.5C1239.93 940 1280 980.071 1280 1029.5V1190.5C1280 1239.93 1239.93 1280 1190.5 1280H1035C993.579 1280 960 1313.58 960 1355V1505Z" fill="#21212B"/>
</svg>
