<svg width="1580" height="620" viewBox="0 0 1580 620" fill="none" xmlns="http://www.w3.org/2000/svg">
<path d="M320 75C320 33.5787 353.579 3.78104e-05 395 3.78104e-05H545C586.421 3.78104e-05 620 33.5787 620 75V225C620 266.421 586.421 300 545 300H395C353.579 300 320 266.421 320 225V75Z" fill="#21212B"/>
<path d="M960 395C960 353.579 993.579 320 1035 320H1185C1226.42 320 1260 353.579 1260 395V545C1260 586.421 1226.42 620 1185 620H1035C993.579 620 960 586.421 960 545V395Z" fill="#21212B"/>
<path d="M75 3.4532e-05C33.5786 3.63426e-05 -1.81058e-06 33.5787 0 75L6.55671e-06 225C8.3673e-06 266.421 33.5787 300 75 300H230.5C279.929 300 320 340.07 320 389.5L320 545C320 586.421 353.579 620 395 620H545C586.421 620 620 586.421 620 545V389.5C620 340.07 660.071 300 709.5 300H865C906.421 300 940 266.421 940 225V75C940 33.5786 906.421 -1.81058e-06 865 0L715 6.55671e-06C673.579 8.36729e-06 640 33.5787 640 75V230.5C640 279.93 599.929 320 550.5 320L389.5 320C340.071 320 300 279.93 300 230.5V75C300 33.5787 266.421 2.61647e-05 225 2.79753e-05L75 3.4532e-05Z" fill="#21212B"/>
<path d="M1505 620C1546.42 620 1580 586.421 1580 545V395C1580 353.579 1546.42 320 1505 320H1349.5C1300.07 320 1260 279.93 1260 230.5V75C1260 33.5787 1226.42 2.23549e-05 1185 2.05444e-05L1035 1.39876e-05C993.579 1.21771e-05 960 33.5787 960 75V230.5C960 279.93 919.929 320 870.5 320H715C673.579 320 640 353.579 640 395V545C640 586.421 673.579 620 715 620H865C906.421 620 940 586.421 940 545V389.5C940 340.07 980.071 300 1029.5 300L1190.5 300C1239.93 300 1280 340.07 1280 389.5V545C1280 586.421 1313.58 620 1355 620L1505 620Z" fill="#21212B"/>
</svg>
