<svg width="940" height="620" viewBox="0 0 940 620" fill="none" xmlns="http://www.w3.org/2000/svg">
<path d="M865 620C906.421 620 940 586.421 940 545L940 395C940 353.579 906.421 320 865 320L709.5 320C660.071 320 620 279.93 620 230.5L620 75C620 33.5786 586.421 -1.54554e-05 545 -1.7266e-05L395 -2.38227e-05C353.579 -2.56333e-05 320 33.5786 320 75L320 230.5C320 279.93 279.929 320 230.5 320L75 320C33.5787 320 -1.54554e-05 353.579 -1.7266e-05 395L-2.38227e-05 545C-2.56333e-05 586.421 33.5786 620 75 620L225 620C266.421 620 300 586.421 300 545L300 389.5C300 340.07 340.071 300 389.5 300L550.5 300C599.929 300 640 340.07 640 389.5L640 545C640 586.421 673.579 620 715 620L865 620Z" fill="#21212B"/>
</svg>
