<svg width="940" height="1260" viewBox="0 0 940 1260" fill="none" xmlns="http://www.w3.org/2000/svg">
<path d="M0 715C0 673.579 33.5786 640 75 640H225C266.421 640 300 673.579 300 715V865C300 906.421 266.421 940 225 940H75C33.5786 940 0 906.421 0 865V715Z" fill="#21212B"/>
<path d="M0 1035C0 993.579 33.5786 960 75 960H225C266.421 960 300 993.579 300 1035V1185C300 1226.42 266.421 1260 225 1260H75C33.5786 1260 0 1226.42 0 1185V1035Z" fill="#21212B"/>
<path d="M620 75C620 33.5786 586.421 0 545 0H395C353.579 0 320 33.5786 320 75V230.5C320 279.929 279.93 320 230.5 320H75C33.5786 320 0 353.579 0 395V545C0 586.421 33.5786 620 75 620H230.5C279.93 620 320 660.071 320 709.5V865C320 906.421 353.579 940 395 940H545C586.421 940 620 906.421 620 865V715C620 673.579 586.421 640 545 640H389.5C340.07 640 300 599.929 300 550.5V389.5C300 340.071 340.07 300 389.5 300H545C586.421 300 620 266.421 620 225V75Z" fill="#21212B"/>
<path d="M320 1185C320 1226.42 353.579 1260 395 1260H545C586.421 1260 620 1226.42 620 1185V1029.5C620 980.071 660.07 940 709.5 940H865C906.421 940 940 906.421 940 865V715C940 673.579 906.421 640 865 640H709.5C660.07 640 620 599.929 620 550.5V395C620 353.579 586.421 320 545 320L395 320C353.579 320 320 353.579 320 395V545C320 586.421 353.579 620 395 620H550.5C599.93 620 640 660.071 640 709.5V870.5C640 919.929 599.93 960 550.5 960H395C353.579 960 320 993.579 320 1035L320 1185Z" fill="#21212B"/>
</svg>
