<svg width="1400" height="350" viewBox="0 0 1400 350" fill="none" xmlns="http://www.w3.org/2000/svg">
<path d="M980.419 296.503C980.419 287.234 987.933 279.72 997.202 279.72H1033.57C1042.83 279.72 1050.35 287.234 1050.35 296.503V332.867C1050.35 342.136 1042.83 349.65 1033.57 349.65H997.202C987.933 349.65 980.419 342.136 980.419 332.867V296.503Z" fill="#E3C8BD"/>
<path d="M351.048 296.503V332.867C351.048 342.136 358.563 349.65 367.832 349.65H404.195C413.464 349.65 420.978 342.136 420.978 332.867V296.503C420.978 287.234 428.493 279.72 437.762 279.72H544.055C553.324 279.72 560.839 287.234 560.839 296.503V332.867C560.839 342.136 568.353 349.65 577.622 349.65H613.985C623.254 349.65 630.769 342.136 630.769 332.867V226.573C630.769 217.304 630.769 222.727 630.769 209.441C630.769 199.301 630.769 202.276 630.769 193.007V86.7133C630.769 77.4441 623.254 69.9301 613.985 69.9301H577.622C568.353 69.9301 560.839 62.416 560.839 53.1468V16.7832C560.839 7.51407 553.324 0 544.055 0H507.692C498.423 0 490.908 7.51407 490.908 16.7832V53.1468C490.908 62.416 483.394 69.9301 474.125 69.9301H437.762C428.493 69.9301 420.978 77.4441 420.978 86.7133V123.077C420.978 132.346 413.464 139.86 404.195 139.86H367.832C358.563 139.86 351.048 147.374 351.048 156.643V193.007C351.048 202.276 358.563 209.79 367.832 209.79H404.195C413.464 209.79 420.978 217.304 420.978 226.573V262.937C420.978 272.206 413.464 279.72 404.195 279.72H367.832C358.563 279.72 351.048 287.234 351.048 296.503ZM560.839 193.007C560.839 202.276 553.324 209.79 544.055 209.79H437.762C428.493 209.79 420.978 202.276 420.978 193.007V156.643C420.978 147.374 428.493 139.86 437.762 139.86H474.125C483.394 139.86 490.908 132.346 490.908 123.077V86.7133C490.908 77.4441 498.423 69.9301 507.692 69.9301H544.055C553.324 69.9301 560.839 77.4441 560.839 86.7133V193.007Z" fill="#E3C8BD"/>
<path d="M840.559 86.7133C840.559 77.4441 833.044 69.9301 823.776 69.9301H787.412C778.144 69.9301 770.629 62.416 770.629 53.1468V16.7832C770.629 7.51407 763.114 0 753.846 0H717.482C708.214 0 700.699 7.51407 700.699 16.7832V332.867C700.699 342.136 708.214 349.65 717.482 349.65H753.846C763.114 349.65 770.629 342.136 770.629 332.867V156.643C770.629 147.374 778.144 139.86 787.412 139.86H823.776C833.044 139.86 840.559 147.374 840.559 156.643V193.007C840.559 202.276 848.074 209.79 857.342 209.79H893.706C902.974 209.79 910.489 202.276 910.489 193.007V156.643C910.489 147.374 918.004 139.86 927.272 139.86H963.636C972.904 139.86 980.419 147.374 980.419 156.643V193.007C980.419 202.276 987.934 209.79 997.202 209.79H1033.57C1042.83 209.79 1050.35 202.276 1050.35 193.007V16.7832C1050.35 7.51407 1042.83 0 1033.57 0H997.202C987.934 0 980.419 7.51407 980.419 16.7832V53.1468C980.419 62.416 972.904 69.9301 963.636 69.9301H927.272C918.004 69.9301 910.489 77.4441 910.489 86.7133V123.077C910.489 132.346 902.974 139.86 893.706 139.86H857.342C848.074 139.86 840.559 132.346 840.559 123.077V86.7133Z" fill="#E3C8BD"/>
<path d="M1137.06 139.86H1173.43C1182.7 139.86 1190.21 132.346 1190.21 123.077V86.7133C1190.21 77.4441 1197.72 69.9301 1206.99 69.9301H1243.36C1252.63 69.9301 1260.14 62.416 1260.14 53.1468V16.7832C1260.14 7.51407 1267.65 0 1276.92 0H1313.29C1322.56 0 1330.07 7.51407 1330.07 16.7832V53.1468C1330.07 62.416 1337.58 69.9301 1346.85 69.9301H1383.22C1392.49 69.9301 1400 77.4441 1400 86.7133V332.867C1400 342.136 1392.49 349.65 1383.22 349.65H1346.85C1337.58 349.65 1330.07 342.136 1330.07 332.867V296.503C1330.07 287.234 1322.56 279.72 1313.29 279.72H1206.99C1197.72 279.72 1190.21 287.234 1190.21 296.503V332.867C1190.21 342.136 1182.7 349.65 1173.43 349.65H1137.06C1127.79 349.65 1120.28 342.136 1120.28 332.867V296.503C1120.28 287.234 1127.79 279.72 1137.06 279.72H1173.43C1182.7 279.72 1190.21 272.206 1190.21 262.937V226.573C1190.21 217.304 1182.7 209.79 1173.43 209.79H1137.06C1127.79 209.79 1120.28 202.276 1120.28 193.007V156.643C1120.28 147.374 1127.79 139.86 1137.06 139.86ZM1330.07 86.7133C1330.07 77.4441 1322.56 69.9301 1313.29 69.9301H1276.92C1267.65 69.9301 1260.14 77.4441 1260.14 86.7133V123.077C1260.14 132.346 1252.63 139.86 1243.36 139.86H1206.99C1197.72 139.86 1190.21 147.374 1190.21 156.643V193.007C1190.21 202.276 1197.72 209.79 1206.99 209.79H1313.29C1322.56 209.79 1330.07 202.276 1330.07 193.007V86.7133Z" fill="#E3C8BD"/>
<path d="M139.86 296.503C139.86 287.234 147.374 279.72 156.643 279.72H193.007C202.276 279.72 209.79 287.234 209.79 296.503V332.867C209.79 342.136 202.276 349.65 193.007 349.65H156.643C147.374 349.65 139.86 342.136 139.86 332.867V296.503Z" fill="#E3C8BD"/>
<path d="M123.077 69.9301H86.7133C77.4448 69.9301 69.9301 62.416 69.9301 53.1469V16.7832C69.9301 7.51407 62.4153 0 53.1468 0H16.7832C7.51475 0 0 7.51407 0 16.7832V53.1469C0 62.416 7.51475 69.9301 16.7832 69.9301H53.1468C62.4153 69.9301 69.9301 77.4441 69.9301 86.7133V123.077C69.9301 132.346 77.4448 139.86 86.7133 139.86H123.077C132.345 139.86 139.86 147.374 139.86 156.643V193.007C139.86 202.276 147.375 209.79 156.643 209.79H193.007C202.275 209.79 209.79 202.276 209.79 193.007V156.643C209.79 147.374 217.305 139.86 226.573 139.86H262.937C272.206 139.86 279.72 132.346 279.72 123.077V86.7133C279.72 77.4441 287.235 69.9301 296.503 69.9301H332.867C342.136 69.9301 349.65 62.416 349.65 53.1469V16.7832C349.65 7.51407 342.136 0 332.867 0H296.503C287.235 0 279.72 7.51407 279.72 16.7832V53.1469C279.72 62.416 272.206 69.9301 262.937 69.9301H226.573C217.305 69.9301 209.79 77.4441 209.79 86.7133V123.077C209.79 132.346 202.275 139.86 193.007 139.86H156.643C147.375 139.86 139.86 132.346 139.86 123.077V86.7133C139.86 77.4441 132.345 69.9301 123.077 69.9301Z" fill="#E3C8BD"/>
</svg>
